# Blender 3.4.1
# www.blender.org
mtllib Tower_N.mtl
o Cube.002
v -3.150000 41.500000 -3.149972
v -3.150000 0.000004 -3.150000
v 3.150000 0.000004 -3.150000
v 0.250000 41.499969 -0.249972
v -3.150000 22.000000 -3.149984
v -3.150000 30.000000 -3.149984
v 3.150000 34.000000 -3.149978
v -3.150000 26.000000 -3.149987
v 3.150000 26.000000 -3.149987
v -0.250000 52.499969 -0.249964
v -3.150008 0.000007 3.150006
v -3.149984 38.000000 -3.149994
v 3.149988 30.000000 -3.149995
v -3.149987 34.000000 -3.149995
v -3.149987 34.000000 3.150006
v 3.149993 22.000000 -3.149995
v 3.149985 38.000000 3.150005
v 3.149982 41.500000 3.150006
v 3.149984 38.000000 -3.149995
v 3.149993 22.000000 3.150006
v 3.149992 26.000002 3.150006
v 3.149981 41.500000 -3.149995
v 3.150000 0.000003 3.150012
v -3.150000 41.500000 3.149984
v -3.150000 38.000000 3.149988
v 3.150000 30.000000 3.149996
v -3.150000 30.000000 3.149997
v -3.150000 22.000000 3.149996
v 3.150000 34.000000 3.149990
v -3.150000 26.000000 3.149999
v -0.249966 41.499973 0.250008
v 0.250000 52.500000 0.249980
v -0.250000 52.500000 0.250036
v 0.249966 41.499973 0.250008
v 0.249958 52.499973 -0.249992
v -0.249966 41.499973 -0.249992
vn -0.0000 1.0000 -0.0000
vn -0.0000 -0.0000 -1.0000
vn -0.2093 0.2692 -0.9401
vn 0.0709 0.0763 -0.9946
vn -0.3792 0.8864 -0.2656
vn 0.9482 -0.1972 0.2490
vn -1.0000 -0.0000 -0.0000
vn 1.0000 -0.0000 -0.0000
vn -0.0000 -0.0000 1.0000
vn 0.0001 -0.0000 1.0000
vt 0.424096 0.490094
vt 0.000063 0.792692
vt 0.999938 0.792692
vt 0.000063 0.000534
vt 0.999938 0.000534
vt 0.999938 0.000534
vt 0.000063 0.000534
vt 0.456349 0.792764
vt 0.531519 0.792764
vt 0.000063 0.420474
vt 0.999938 0.420474
vt 0.000063 0.573179
vt 0.999938 0.573179
vt 0.999938 0.649531
vt 0.000063 0.649531
vt 0.000063 0.496826
vt 0.999938 0.496826
vt 0.999938 0.496826
vt 0.000063 0.496826
vt 0.875000 0.500000
vt 0.531519 0.938282
vt 0.456349 0.938282
vt 0.000063 0.000534
vt 0.999938 0.000534
vt 0.000063 0.725884
vt 0.999938 0.725884
vt 0.999938 0.573179
vt 0.000063 0.573179
vt 0.000063 0.649531
vt 0.999938 0.649531
vt 0.000063 0.649531
vt 0.999938 0.649531
vt 0.999938 0.420474
vt 0.000063 0.420474
vt 0.999938 0.725884
vt 0.000063 0.725884
vt 0.575904 0.509906
vt 0.999938 0.792692
vt 0.000063 0.792692
vt 0.999938 0.725884
vt 0.000063 0.725884
vt 0.999938 0.420474
vt 0.000063 0.420474
vt 0.999938 0.496826
vt 0.000063 0.496826
vt 0.575904 0.490094
vt 0.999938 0.792692
vt 0.000063 0.792692
vt 0.999938 0.000534
vt 0.000063 0.000534
vt 0.424096 0.509906
vt 0.000063 0.792692
vt 0.999938 0.792692
vt 0.000063 0.725884
vt 0.999938 0.725884
vt 0.999938 0.573179
vt 0.000063 0.573179
vt 0.000063 0.573179
vt 0.999938 0.573179
vt 0.000063 0.420474
vt 0.999938 0.420474
vt 0.999938 0.649531
vt 0.000063 0.649531
vt 0.000063 0.496826
vt 0.999938 0.496826
vt 0.456349 0.792764
vt 0.531519 0.792764
vt 0.625000 0.750000
vt 0.531519 0.938282
vt 0.456349 0.938282
vt 0.875000 0.750000
vt 0.456349 0.938282
vt 0.531519 0.938282
vt 0.531519 0.792764
vt 0.456349 0.792764
vt 0.625000 0.500000
vt 0.456349 0.938282
vt 0.531519 0.938282
vt 0.531519 0.792764
vt 0.456349 0.792764
s 1
usemtl Tower
f 22/46/1 1/1/1 24/51/1 18/37/1
f 12/25/2 1/2/2 22/47/2 19/40/2
f 35/76/3 10/20/4 33/71/5 32/68/6
f 8/16/2 6/12/2 13/27/2 9/18/2
f 14/29/2 12/25/2 19/40/2 7/14/2
f 2/4/2 5/10/2 16/33/2 3/6/2
f 6/12/2 14/29/2 7/14/2 13/27/2
f 5/10/2 8/16/2 9/18/2 16/33/2
f 36/79/2 10/21/4 35/77/3 4/8/2
f 25/54/7 24/52/7 1/3/7 12/26/7
f 30/64/7 27/58/7 6/13/7 8/17/7
f 15/31/7 25/54/7 12/26/7 14/30/7
f 11/23/7 28/60/7 5/11/7 2/5/7
f 27/58/7 15/31/7 14/30/7 6/13/7
f 28/60/7 30/64/7 8/17/7 5/11/7
f 7/15/8 19/41/8 17/35/8 29/62/8
f 9/19/8 13/28/8 26/56/8 21/44/8
f 19/41/8 22/48/8 18/38/8 17/35/8
f 3/7/8 16/34/8 20/42/8 23/49/8
f 13/28/8 7/15/8 29/62/8 26/56/8
f 16/34/8 9/19/8 21/44/8 20/42/8
f 17/36/9 18/39/9 24/53/9 25/55/9
f 21/45/9 26/57/9 27/59/9 30/65/9
f 29/63/9 17/36/9 25/55/9 15/32/9
f 23/50/9 20/43/9 28/61/9 11/24/9
f 26/57/9 29/63/9 15/32/9 27/59/9
f 20/43/9 21/45/9 30/65/9 28/61/9
f 34/74/10 32/69/6 33/72/5 31/66/10
f 4/9/8 35/78/3 32/70/6 34/75/8
f 31/67/7 33/73/5 10/22/4 36/80/7
