# Blender 3.4.1
# www.blender.org
mtllib Tower_S.mtl
o Cube.002
v -3.150000 41.500000 -3.149972
v -3.150000 0.000004 -3.150000
v 3.150000 0.000004 -3.150000
v -3.150000 22.000000 -3.149984
v -3.150000 30.000000 -3.149984
v 3.150000 34.000000 -3.149978
v -3.150000 26.000000 -3.149987
v 3.150000 26.000000 -3.149987
v -3.150008 0.000007 3.150006
v -3.149984 38.000000 -3.149994
v 3.149988 30.000000 -3.149995
v -3.149987 34.000000 -3.149995
v -3.149987 34.000000 3.150006
v 3.149993 22.000000 -3.149995
v 3.149985 38.000000 3.150005
v 3.149982 41.500000 3.150006
v 3.149984 38.000000 -3.149995
v 3.149993 22.000000 3.150006
v 3.149992 26.000002 3.150006
v 3.149981 41.500000 -3.149995
v 3.150000 0.000003 3.150012
v -3.150000 41.500000 3.149984
v -3.150000 38.000000 3.149988
v 3.150000 30.000000 3.149996
v -3.150000 30.000000 3.149997
v -3.150000 22.000000 3.149996
v 3.150000 34.000000 3.149990
v -3.150000 26.000000 3.149999
vn -0.0000 1.0000 -0.0000
vn -0.0000 -0.0000 -1.0000
vn -1.0000 -0.0000 -0.0000
vn 1.0000 -0.0000 -0.0000
vn -0.0000 -0.0000 1.0000
vt 0.424096 0.490094
vt 0.000063 0.792692
vt 0.999938 0.792692
vt 0.000063 0.000534
vt 0.999938 0.000534
vt 0.999938 0.000534
vt 0.000063 0.000534
vt 0.000063 0.420474
vt 0.999938 0.420474
vt 0.000063 0.573179
vt 0.999938 0.573179
vt 0.999938 0.649531
vt 0.000063 0.649531
vt 0.000063 0.496826
vt 0.999938 0.496826
vt 0.999938 0.496826
vt 0.000063 0.496826
vt 0.000063 0.000534
vt 0.999938 0.000534
vt 0.000063 0.725884
vt 0.999938 0.725884
vt 0.999938 0.573179
vt 0.000063 0.573179
vt 0.000063 0.649531
vt 0.999938 0.649531
vt 0.000063 0.649531
vt 0.999938 0.649531
vt 0.999938 0.420474
vt 0.000063 0.420474
vt 0.999938 0.725884
vt 0.000063 0.725884
vt 0.575904 0.509906
vt 0.999938 0.792692
vt 0.000063 0.792692
vt 0.999938 0.725884
vt 0.000063 0.725884
vt 0.999938 0.420474
vt 0.000063 0.420474
vt 0.999938 0.496826
vt 0.000063 0.496826
vt 0.575904 0.490094
vt 0.999938 0.792692
vt 0.000063 0.792692
vt 0.999938 0.000534
vt 0.000063 0.000534
vt 0.424096 0.509906
vt 0.000063 0.792692
vt 0.999938 0.792692
vt 0.000063 0.725884
vt 0.999938 0.725884
vt 0.999938 0.573179
vt 0.000063 0.573179
vt 0.000063 0.573179
vt 0.999938 0.573179
vt 0.000063 0.420474
vt 0.999938 0.420474
vt 0.999938 0.649531
vt 0.000063 0.649531
vt 0.000063 0.496826
vt 0.999938 0.496826
s 1
usemtl Tower
f 20/41/1 1/1/1 22/46/1 16/32/1
f 10/20/2 1/2/2 20/42/2 17/35/2
f 7/14/2 5/10/2 11/22/2 8/16/2
f 12/24/2 10/20/2 17/35/2 6/12/2
f 2/4/2 4/8/2 14/28/2 3/6/2
f 5/10/2 12/24/2 6/12/2 11/22/2
f 4/8/2 7/14/2 8/16/2 14/28/2
f 23/49/3 22/47/3 1/3/3 10/21/3
f 28/59/3 25/53/3 5/11/3 7/15/3
f 13/26/3 23/49/3 10/21/3 12/25/3
f 9/18/3 26/55/3 4/9/3 2/5/3
f 25/53/3 13/26/3 12/25/3 5/11/3
f 26/55/3 28/59/3 7/15/3 4/9/3
f 6/13/4 17/36/4 15/30/4 27/57/4
f 8/17/4 11/23/4 24/51/4 19/39/4
f 17/36/4 20/43/4 16/33/4 15/30/4
f 3/7/4 14/29/4 18/37/4 21/44/4
f 11/23/4 6/13/4 27/57/4 24/51/4
f 14/29/4 8/17/4 19/39/4 18/37/4
f 15/31/5 16/34/5 22/48/5 23/50/5
f 19/40/5 24/52/5 25/54/5 28/60/5
f 27/58/5 15/31/5 23/50/5 13/27/5
f 21/45/5 18/38/5 26/56/5 9/19/5
f 24/52/5 27/58/5 13/27/5 25/54/5
f 18/38/5 19/40/5 28/60/5 26/56/5
